<svg width="76" height="76" viewBox="0 0 76 76" fill="none" xmlns="http://www.w3.org/2000/svg">
<path d="M67.8571 57C69.2969 57 70.6777 56.4281 71.6957 55.41C72.7138 54.3919 73.2857 53.0112 73.2857 51.5714V40.7143C73.2857 39.2745 72.7138 37.8938 71.6957 36.8757C70.6777 35.8576 69.2969 35.2857 67.8571 35.2857H59.7143L55.5343 22.6914C55.1566 21.5678 54.4214 20.5987 53.4412 19.9322C52.461 19.2656 51.2895 18.9382 50.1057 19H28.3371C27.1533 18.9382 25.9819 19.2656 25.0016 19.9322C24.0214 20.5987 23.2863 21.5678 22.9086 22.6914L19 35.2857H8.14285C6.7031 35.2857 5.32233 35.8576 4.30427 36.8757C3.28622 37.8938 2.71428 39.2745 2.71428 40.7143V51.5714C2.71428 53.0112 3.28622 54.3919 4.30427 55.41C5.32233 56.4281 6.7031 57 8.14285 57" stroke="#000001" stroke-linecap="round" stroke-linejoin="round"/>
<path d="M19 67.8571C24.9962 67.8571 29.8571 62.9962 29.8571 57C29.8571 51.0038 24.9962 46.1429 19 46.1429C13.0038 46.1429 8.14285 51.0038 8.14285 57C8.14285 62.9962 13.0038 67.8571 19 67.8571Z" stroke="#000001" stroke-linecap="round" stroke-linejoin="round"/>
<path d="M57 67.8571C62.9962 67.8571 67.8571 62.9962 67.8571 57C67.8571 51.0038 62.9962 46.1429 57 46.1429C51.0038 46.1429 46.1429 51.0038 46.1429 57C46.1429 62.9962 51.0038 67.8571 57 67.8571Z" stroke="#000001" stroke-linecap="round" stroke-linejoin="round"/>
<path d="M29.8571 57H46.1428" stroke="#000001" stroke-linecap="round" stroke-linejoin="round"/>
<path d="M38 19V8.14285" stroke="#000001" stroke-linecap="round" stroke-linejoin="round"/>
</svg>
