<svg width="76" height="76" viewBox="0 0 76 76" fill="none" xmlns="http://www.w3.org/2000/svg">
<path d="M54.2857 9.5H8.14287C5.14475 9.5 2.71429 11.9305 2.71429 14.9286V47.5C2.71429 50.4981 5.14475 52.9286 8.14287 52.9286H54.2857C57.2838 52.9286 59.7143 50.4981 59.7143 47.5V14.9286C59.7143 11.9305 57.2838 9.5 54.2857 9.5Z" stroke="#000001" stroke-linecap="round" stroke-linejoin="round"/>
<path d="M31.2143 39.3571C35.7115 39.3571 39.3572 35.7115 39.3572 31.2143C39.3572 26.7171 35.7115 23.0714 31.2143 23.0714C26.7171 23.0714 23.0714 26.7171 23.0714 31.2143C23.0714 35.7115 26.7171 39.3571 31.2143 39.3571Z" stroke="#000001" stroke-linecap="round" stroke-linejoin="round"/>
<path d="M19 66.5H67.8571C69.2969 66.5 70.6777 65.9281 71.6957 64.91C72.7138 63.892 73.2857 62.5112 73.2857 61.0714V33.9286" stroke="#000001" stroke-linecap="round" stroke-linejoin="round"/>
</svg>
