<svg width="32" height="32" viewBox="0 0 32 32" fill="none" xmlns="http://www.w3.org/2000/svg">
<g clip-path="url(#clip0_1_85)">
<path d="M20.0229 29.7142C21.4305 30.6223 23.1078 31.0181 24.7729 30.8349C26.438 30.6517 27.9892 29.9009 29.1657 28.7085L30.1943 27.7028C30.6453 27.2416 30.8977 26.6221 30.8977 25.9771C30.8977 25.332 30.6453 24.7126 30.1943 24.2514L25.8286 19.9314C25.3712 19.4819 24.7556 19.23 24.1143 19.23C23.473 19.23 22.8574 19.4819 22.4 19.9314V19.9314C21.9388 20.3823 21.3194 20.6348 20.6743 20.6348C20.0293 20.6348 19.4098 20.3823 18.9486 19.9314L12.0915 13.0742C11.8627 12.8488 11.6811 12.5801 11.5571 12.2839C11.4331 11.9876 11.3692 11.6697 11.3692 11.3485C11.3692 11.0274 11.4331 10.7094 11.5571 10.4131C11.6811 10.1169 11.8627 9.84822 12.0915 9.6228V9.6228C12.541 9.16542 12.7928 8.54979 12.7928 7.90851C12.7928 7.26723 12.541 6.65161 12.0915 6.19423L7.7486 1.85137C7.28736 1.40043 6.66793 1.14795 6.02289 1.14795C5.37784 1.14795 4.75841 1.40043 4.29717 1.85137L3.29146 2.87994C2.09911 4.0565 1.34822 5.60772 1.16507 7.27278C0.98191 8.93784 1.37765 10.6152 2.28574 12.0228C7.01727 18.9959 13.0376 25.0007 20.0229 29.7142V29.7142Z" stroke="#000001" stroke-linecap="round" stroke-linejoin="round"/>
</g>
<defs>
<clipPath id="clip0_1_85">
<rect width="32" height="32" fill="white"/>
</clipPath>
</defs>
</svg>
