<svg width="76" height="76" viewBox="0 0 76 76" fill="none" xmlns="http://www.w3.org/2000/svg">
<path d="M6.73145 35.5028L69.16 7.11142" stroke="#000001" stroke-linecap="round" stroke-linejoin="round"/>
<path d="M57.4886 2.71428L69.16 7.11142L64.8172 18.7829" stroke="#000001" stroke-linecap="round" stroke-linejoin="round"/>
<path d="M71.9286 73.34H58.3572L58.3572 35.34C58.3572 34.6201 58.6431 33.9297 59.1522 33.4207C59.6612 32.9117 60.3516 32.6257 61.0714 32.6257H69.2143C69.9342 32.6257 70.6246 32.9117 71.1336 33.4207C71.6426 33.9297 71.9286 34.6201 71.9286 35.34V73.34Z" stroke="#000001" stroke-linecap="round" stroke-linejoin="round"/>
<path d="M44.7857 73.34H31.2143L31.2143 43.4829C31.2143 42.763 31.5003 42.0726 32.0093 41.5636C32.5183 41.0545 33.2087 40.7686 33.9286 40.7686H42.0715C42.7913 40.7686 43.4817 41.0545 43.9907 41.5636C44.4998 42.0726 44.7857 42.763 44.7857 43.4829L44.7857 73.34Z" stroke="#000001" stroke-linecap="round" stroke-linejoin="round"/>
<path d="M17.6429 73.34H4.07146L4.07146 51.6257C4.07146 50.9058 4.35742 50.2154 4.86645 49.7064C5.37548 49.1974 6.06587 48.9114 6.78574 48.9114H14.9286C15.6485 48.9114 16.3389 49.1974 16.8479 49.7064C17.3569 50.2154 17.6429 50.9058 17.6429 51.6257L17.6429 73.34Z" stroke="#000001" stroke-linecap="round" stroke-linejoin="round"/>
</svg>
